Coordinates
version=1
nRows=13
nColumns=63
inDegrees=yes

Units are S.I. units (second, meters, Newtons, ...)
If the header above contains a line with 'inDegrees', this indicates whether rotational values are in degrees (yes) or radians (no).

endheader
time	pelvis_tilt	pelvis_list	pelvis_rotation	pelvis_tx	pelvis_ty	pelvis_tz	hip_flexion_r	hip_adduction_r	hip_rotation_r	knee_angle_r	knee_angle_r_beta	ankle_angle_r	subtalar_angle_r	mtp_angle_r	hip_flexion_l	hip_adduction_l	hip_rotation_l	knee_angle_l	knee_angle_l_beta	ankle_angle_l	subtalar_angle_l	mtp_angle_l	L5_S1_Flex_Ext	L5_S1_Lat_Bending	L5_S1_axial_rotation	L4_L5_Flex_Ext	L4_L5_Lat_Bending	L4_L5_axial_rotation	L3_L4_Flex_Ext	L3_L4_Lat_Bending	L3_L4_axial_rotation	L2_L3_Flex_Ext	L2_L3_Lat_Bending	L2_L3_axial_rotation	L1_L2_Flex_Ext	L1_L2_Lat_Bending	L1_L2_axial_rotation	L1_T12_Flex_Ext	L1_T12_Lat_Bending	L1_T12_axial_rotation	Abs_r3	Abs_r2	Abs_r1	Abs_t1	Abs_t2	neck_flexion	neck_bending	neck_rotation	arm_flex_r	arm_add_r	arm_rot_r	elbow_flex_r	pro_sup_r	wrist_flex_r	wrist_dev_r	arm_flex_l	arm_add_l	arm_rot_l	elbow_flex_l	pro_sup_l	wrist_flex_l	wrist_dev_l
2.700000	0.822892	-9.441280	88.441167	0.256310	0.992277	0.391553	10.644195	-0.997429	-20.915988	8.156326	0.142355	23.917113	15.731617	0.000000	14.269508	-0.677670	5.450835	14.622620	0.255213	23.851082	-9.481903	0.000000	0.019499	-0.752167	1.351391	0.036212	-1.000381	1.435853	0.032036	-1.828818	1.435853	0.022286	-1.828818	1.182467	0.018107	-1.533818	1.098005	0.011142	-1.165106	1.013543	0.139282	-8.508658	7.516030	0.000000	0.000000	7.286464	8.259052	-17.944018	-8.361521	-13.509316	-7.226194	123.129712	73.047335	-3.111151	19.743317	10.475226	-16.938479	3.883796	104.231448	88.299130	-11.075077	10.580754
2.716667	0.830564	-9.383406	88.625509	0.255942	0.991957	0.391489	10.454138	-0.987444	-21.014453	7.931037	0.138423	23.936142	15.700987	0.000000	14.241016	-0.603829	5.800610	14.628471	0.255315	23.954543	-9.704124	0.000000	0.021013	-0.743839	1.269000	0.039023	-0.989306	1.348312	0.034522	-1.808570	1.348312	0.024015	-1.808570	1.110375	0.019512	-1.516837	1.031062	0.012007	-1.152207	0.951750	0.150091	-8.414456	7.057796	0.000000	0.000000	8.057215	8.001052	-17.632951	-8.676267	-14.225735	-4.415444	120.709462	77.174408	-1.239321	19.484282	10.331691	-17.139002	4.437381	103.199666	89.116832	-9.716089	11.778713
2.733333	0.828642	-9.318696	88.769312	0.255585	0.991616	0.391382	10.252911	-0.979917	-21.073635	7.692082	0.134252	23.973340	15.649525	0.000000	14.194324	-0.525439	6.124063	14.615806	0.255094	24.101841	-9.898097	0.000000	0.023419	-0.735377	1.191276	0.043492	-0.978051	1.265730	0.038475	-1.787995	1.265730	0.026766	-1.787995	1.042366	0.021747	-1.499580	0.967911	0.013382	-1.139099	0.893457	0.167281	-8.318730	6.625517	0.000000	0.000000	8.921067	7.648035	-17.335302	-8.797607	-14.903851	-1.368969	117.964493	81.942485	0.846853	19.451612	10.198779	-17.306588	5.104145	102.021571	89.654668	-8.348348	12.430467
2.750000	0.833076	-9.248320	88.867233	0.255245	0.991264	0.391223	10.047105	-0.959008	-21.083480	7.451499	0.130053	24.013626	15.569054	0.000000	14.131556	-0.465943	6.372781	14.592804	0.254692	24.303693	-10.011769	0.000000	0.026860	-0.724548	1.124238	0.049882	-0.963649	1.194503	0.044129	-1.761667	1.194503	0.030699	-1.761667	0.983709	0.024942	-1.477499	0.913444	0.015348	-1.122326	0.843179	0.191861	-8.196237	6.252677	0.000000	0.000000	9.861401	7.234750	-17.019184	-8.688822	-15.493002	1.793474	114.909607	86.809295	3.154204	19.837960	10.102857	-17.431793	5.963553	100.697845	89.834642	-7.108107	12.488141
2.766667	0.850306	-9.170536	88.927901	0.254887	0.990917	0.390991	9.836128	-0.924007	-21.068067	7.218883	0.125993	24.059802	15.482990	0.000000	14.047977	-0.423344	6.606049	14.563876	0.254188	24.523675	-10.124109	0.000000	0.031920	-0.709918	1.067874	0.059280	-0.944191	1.134616	0.052442	-1.726095	1.134616	0.036482	-1.726095	0.934390	0.029641	-1.447665	0.867648	0.018239	-1.099663	0.800905	0.228005	-8.030735	5.939194	0.000000	0.000000	10.825764	6.775302	-16.635525	-8.305896	-15.976370	4.981420	111.542747	90.598961	5.547581	20.726898	10.055204	-17.497519	7.053862	99.228717	89.780082	-6.161795	11.995496
2.783333	0.881230	-9.080975	88.943808	0.254524	0.990587	0.390680	9.624308	-0.877505	-21.027430	7.013436	0.122408	24.112209	15.401901	0.000000	13.931025	-0.397277	6.837064	14.524766	0.253505	24.724752	-10.280632	0.000000	0.038131	-0.691523	1.023986	0.070814	-0.919725	1.087985	0.062646	-1.681369	1.087985	0.043580	-1.681369	0.895988	0.035409	-1.410153	0.831989	0.021788	-1.071169	0.767990	0.272369	-7.822645	5.695103	0.000000	0.000000	11.795094	6.303066	-16.170051	-7.625989	-16.329402	8.091926	107.875438	92.789666	7.864475	22.104424	10.059641	-17.488126	8.371408	97.628048	89.657425	-5.597967	11.080382
2.800000	0.923031	-8.979834	88.909893	0.254193	0.990281	0.390293	9.416498	-0.822669	-20.958341	6.844626	0.119461	24.171101	15.338388	0.000000	13.779466	-0.387310	7.065433	14.481774	0.252755	24.880132	-10.490447	0.000000	0.045459	-0.670235	0.995274	0.084422	-0.891412	1.057479	0.074685	-1.629609	1.057479	0.051955	-1.629609	0.870865	0.042213	-1.366743	0.808660	0.025975	-1.038194	0.746455	0.324711	-7.581831	5.535415	0.000000	0.000000	12.752967	5.819341	-15.642639	-6.684845	-16.522100	11.047242	103.998379	93.612740	9.780999	23.854197	10.115942	-17.391098	9.882292	95.902416	89.634247	-5.390396	9.914738
2.816667	0.980878	-8.862125	88.840254	0.253870	0.990004	0.389814	9.204755	-0.756287	-20.873951	6.712615	0.117157	24.243061	15.287973	0.000000	13.591108	-0.394472	7.307150	14.446399	0.252137	24.986250	-10.756237	0.000000	0.053274	-0.645458	0.982905	0.098936	-0.858459	1.044336	0.087524	-1.569367	1.044336	0.060887	-1.569367	0.860041	0.049471	-1.316218	0.798610	0.030441	-0.999815	0.737178	0.380533	-7.301552	5.466620	0.000000	0.000000	13.669658	5.344755	-15.044386	-5.571902	-16.563831	13.842506	99.998605	92.893882	11.183934	25.650192	10.229943	-17.191245	11.573265	94.032773	89.714215	-5.453318	8.610984
2.833333	1.053282	-8.734045	88.721948	0.253593	0.989756	0.389265	9.001350	-0.678681	-20.760559	6.624057	0.115612	24.322844	15.262676	0.000000	13.371388	-0.420233	7.555932	14.416142	0.251609	25.036555	-11.092804	0.000000	0.061783	-0.618473	0.985914	0.114737	-0.822569	1.047533	0.101503	-1.503756	1.047533	0.070612	-1.503756	0.862674	0.057372	-1.261191	0.801055	0.035303	-0.958015	0.739435	0.441308	-6.996294	5.483355	0.000000	0.000000	14.534579	4.842979	-14.472674	-4.360495	-16.467072	16.560920	95.984502	90.857895	11.929479	27.216859	10.377526	-16.884532	13.360138	92.026512	89.652693	-5.560955	7.351951
2.850000	1.132002	-8.597949	88.586707	0.253349	0.989544	0.388600	8.800685	-0.598856	-20.633862	6.574079	0.114739	24.418741	15.245520	0.000000	13.119572	-0.452321	7.835100	14.377583	0.250936	25.027941	-11.500367	0.000000	0.071962	-0.590664	1.007269	0.133641	-0.785584	1.070223	0.118226	-1.436142	1.070223	0.082245	-1.436142	0.881360	0.066824	-1.204483	0.818406	0.041119	-0.914939	0.755451	0.514017	-6.681715	5.602126	0.000000	0.000000	15.288050	4.345261	-13.930507	-3.252330	-16.192774	19.022260	92.044631	88.710213	12.061586	28.378318	10.596289	-16.499239	15.344826	89.871869	89.496287	-5.706067	6.187584
2.866667	1.208959	-8.447469	88.441013	0.253150	0.989392	0.387842	8.595310	-0.526174	-20.516886	6.559474	0.114484	24.532793	15.253117	0.000000	12.833785	-0.485491	8.116019	14.327599	0.250064	24.989954	-11.920489	0.000000	0.082347	-0.564136	1.040980	0.152927	-0.750301	1.106042	0.135288	-1.371640	1.106042	0.094114	-1.371640	0.910858	0.076467	-1.150386	0.845797	0.047053	-0.873846	0.780735	0.588197	-6.381616	5.789621	0.000000	0.000000	15.914954	3.905364	-13.452148	-2.253381	-15.805659	21.475821	88.213781	86.339468	11.487003	28.621414	10.869842	-16.061892	17.488495	87.580933	89.016460	-5.734539	5.266376
2.883333	1.306690	-8.291530	88.293564	0.252941	0.989303	0.387007	8.392442	-0.439906	-20.406171	6.575212	0.114759	24.633868	15.277874	0.000000	12.531262	-0.538223	8.414872	14.269854	0.249056	24.937227	-12.374336	0.000000	0.094346	-0.535550	1.084883	0.175210	-0.712281	1.152688	0.155001	-1.302136	1.152688	0.107828	-1.302136	0.949272	0.087610	-1.092093	0.881467	0.053909	-0.829567	0.813662	0.673906	-6.058248	6.033791	0.000000	0.000000	16.392088	3.509343	-13.043257	-1.457429	-15.330166	23.736538	84.505322	83.574190	10.394019	27.991139	11.182591	-15.580089	19.837523	85.200759	88.399712	-5.729920	4.639772
2.900000	1.414225	-8.121943	88.160028	0.252713	0.989287	0.386102	8.177893	-0.352211	-20.331213	6.611775	0.115397	24.725477	15.334641	0.000000	12.208232	-0.600554	8.705275	14.199132	0.247822	24.895870	-12.809088	0.000000	0.106907	-0.506495	1.128684	0.198537	-0.673638	1.199226	0.175638	-1.231492	1.199226	0.122184	-1.231492	0.987598	0.099274	-1.032844	0.917056	0.061087	-0.784560	0.846513	0.763627	-5.729571	6.277400	0.000000	0.000000	16.739808	3.213687	-12.649100	-0.802095	-14.828271	25.983563	80.957072	79.981099	8.831516	26.435019	11.509001	-15.092625	22.361899	82.790652	87.583729	-5.600513	4.492329
